<?xml version="1.0" encoding="utf-8"?>
<!-- Generator: Adobe Illustrator 19.2.1, SVG Export Plug-In . SVG Version: 6.00 Build 0)  -->
<svg version="1.1" id="Слой_1" xmlns="http://www.w3.org/2000/svg" xmlns:xlink="http://www.w3.org/1999/xlink" x="0px" y="0px"
	 width="43.6px" height="43.6px" viewBox="0 0 43.6 43.6" enable-background="new 0 0 43.6 43.6" xml:space="preserve">
<g>
	<defs>
		<path id="SVGID_1_" d="M1.8,21.8c0,11,9,20,20,20c11,0,20-9,20-20s-9-20-20-20C10.8,1.8,1.8,10.8,1.8,21.8"/>
	</defs>
	<clipPath id="SVGID_2_">
		<use xlink:href="#SVGID_1_"  overflow="visible"/>
	</clipPath>
	
		<circle clip-path="url(#SVGID_2_)" fill="none" stroke="#010202" stroke-width="3.636" stroke-miterlimit="10" cx="21.8" cy="21.8" r="20"/>
</g>
<g>
	<defs>
		<path id="SVGID_3_" d="M26.8,21.8c0-0.7-0.1-1.3-0.4-1.9h2.7v7.4c0,1-0.8,1.7-1.7,1.7H16.2c-1,0-1.7-0.8-1.7-1.7V20h2.7
			c-0.2,0.6-0.4,1.2-0.4,1.9c0,2.7,2.2,5,5,5C24.6,26.8,26.8,24.6,26.8,21.8 M18.6,21.8c0-0.7,0.2-1.3,0.6-1.9
			c0.6-0.8,1.5-1.3,2.6-1.3s2,0.5,2.6,1.3c0.4,0.5,0.6,1.2,0.6,1.9c0,1.8-1.4,3.2-3.2,3.2S18.6,23.6,18.6,21.8 M25.7,14.8l2.7,0
			l0.4,0v3.1l-3.1,0L25.7,14.8z M16.2,12.7c-1.9,0-3.5,1.6-3.5,3.5v11.2c0,1.9,1.6,3.5,3.5,3.5h11.2c1.9,0,3.5-1.6,3.5-3.5V16.2
			c0-1.9-1.6-3.5-3.5-3.5H16.2z"/>
	</defs>
	<clipPath id="SVGID_4_">
		<use xlink:href="#SVGID_3_"  overflow="visible"/>
	</clipPath>
	<rect x="8.2" y="8.2" clip-path="url(#SVGID_4_)" fill="#010202" width="27.3" height="27.3"/>
</g>
</svg>
