<?xml version="1.0" encoding="utf-8"?>
<!-- Generator: Adobe Illustrator 21.0.0, SVG Export Plug-In . SVG Version: 6.00 Build 0)  -->
<svg version="1.1" id="Слой_1" xmlns="http://www.w3.org/2000/svg" xmlns:xlink="http://www.w3.org/1999/xlink" x="0px" y="0px"
  width="72px" height="72px" viewBox="0 0 72 72" enable-background="new 0 0 72 72" xml:space="preserve">
<rect fill="#08BD29" width="72" height="72"/>
<g>
 <defs>
  <rect id="SVGID_1_" width="72" height="72"/>
 </defs>
 <clipPath id="SVGID_2_">
  <use xlink:href="#SVGID_1_"  overflow="visible"/>
 </clipPath>
 <path clip-path="url(#SVGID_2_)" fill="#FFFFFF" d="M36,44.3c-6.8,0-12.2-5.5-12.2-12.2c0-6.8,5.5-12.2,12.2-12.2
  c6.8,0,12.2,5.5,12.2,12.2C48.2,38.8,42.8,44.3,36,44.3 M35.2,9.1C23.3,9.5,13.6,19.2,13.1,31.1c-0.5,13.1,10,23.9,23,23.9
  c3.9,0,7.1-1,10.5-2.7c0.7-0.4,1.3,0.1,1.3,1v4.5c0,2.4,2.5,5.1,4.9,5.1h1.6c2.5,0,4.2-2.4,4.2-4.9c0,0,0.3-25.7,0.3-25.8
  C58.9,19.3,48.2,8.7,35.2,9.1"/>
 <path clip-path="url(#SVGID_2_)" fill="#38B54A" d="M53.3,60.6c-1.6,0-2.8-1.3-2.8-2.8c0-1.6,1.3-2.8,2.8-2.8
  c1.6,0,2.8,1.3,2.8,2.8C56.2,59.3,54.9,60.6,53.3,60.6"/>
</g>
</svg>

