<svg id="Слой_1" data-name="Слой 1" xmlns="http://www.w3.org/2000/svg" xmlns:xlink="http://www.w3.org/1999/xlink" viewBox="0 0 43.64 43.64"><defs><style>.cls-1,.cls-3{fill:none;}.cls-2{clip-path:url(#clip-path);}.cls-3{stroke:#000100;stroke-miterlimit:10;stroke-width:3.64px;}.cls-4{clip-path:url(#clip-path-2);}.cls-5{fill:#000100;}</style><clipPath id="clip-path" transform="translate(1.82 1.82)"><path class="cls-1" d="M0,20A20,20,0,1,0,20,0,20,20,0,0,0,0,20"/></clipPath><clipPath id="clip-path-2" transform="translate(1.82 1.82)"><path class="cls-1" d="M13.89,21.32a1.64,1.64,0,0,0,.52,2.27,10.69,10.69,0,0,0,3.29,1.35l-3.17,3.15a1.64,1.64,0,0,0,0,2.33,1.67,1.67,0,0,0,2.35,0L20,27.33l3.12,3.09a1.67,1.67,0,0,0,2.35,0,1.64,1.64,0,0,0,0-2.33L22.3,24.95a10.67,10.67,0,0,0,3.29-1.35,1.64,1.64,0,0,0,.52-2.27,1.67,1.67,0,0,0-2.29-.52,7.25,7.25,0,0,1-7.64,0,1.67,1.67,0,0,0-2.29.52m3.74-6.59A2.35,2.35,0,1,1,20,17.05a2.34,2.34,0,0,1-2.35-2.33m-3.32,0A5.67,5.67,0,1,0,20,9.09a5.65,5.65,0,0,0-5.67,5.63"/></clipPath></defs><title>od</title><g class="cls-2"><circle class="cls-3" cx="21.82" cy="21.82" r="20"/></g><g class="cls-4"><rect class="cls-5" x="10.91" y="6.36" width="21.82" height="30.91"/></g></svg>