<svg id="Слой_1" data-name="Слой 1" xmlns="http://www.w3.org/2000/svg" xmlns:xlink="http://www.w3.org/1999/xlink" viewBox="0 0 43.64 43.64"><defs><style>.cls-1,.cls-3{fill:none;}.cls-2{clip-path:url(#clip-path);}.cls-3{stroke:#000100;stroke-miterlimit:10;stroke-width:3.64px;}.cls-4{clip-path:url(#clip-path-2);}.cls-5{fill:#000100;}</style><clipPath id="clip-path" transform="translate(1.82 1.82)"><path class="cls-1" d="M0,20A20,20,0,1,0,20,0,20,20,0,0,0,0,20"/></clipPath><clipPath id="clip-path-2" transform="translate(1.82 1.82)"><path class="cls-1" d="M20.21,16.86a4.29,4.29,0,0,0,.1.94,10.94,10.94,0,0,1-8.07-4.32,4.3,4.3,0,0,0-.53,2.08A4.2,4.2,0,0,0,13.45,19a3.78,3.78,0,0,1-1.78-.52v0.05a4.08,4.08,0,0,0,3.14,4.05,3.75,3.75,0,0,1-1.77.07,4,4,0,0,0,3.66,2.87,7.61,7.61,0,0,1-4.86,1.77,7.41,7.41,0,0,1-.94-0.06,10.68,10.68,0,0,0,6,1.86c7.21,0,11.14-6.3,11.14-11.75,0-.18,0-0.36,0-0.53a8.19,8.19,0,0,0,2-2.14,7.49,7.49,0,0,1-2.25.65A4.09,4.09,0,0,0,29.47,13,7.57,7.57,0,0,1,27,14a3.81,3.81,0,0,0-2.86-1.31,4,4,0,0,0-3.92,4.13"/></clipPath></defs><title>tw</title><g class="cls-2"><circle class="cls-3" cx="21.82" cy="21.82" r="20"/></g><g class="cls-4"><rect class="cls-5" x="8.18" y="10" width="28.18" height="25.45"/></g></svg>