<svg id="Слой_1" data-name="Слой 1" xmlns="http://www.w3.org/2000/svg" xmlns:xlink="http://www.w3.org/1999/xlink" viewBox="0 0 18.96 16"><defs><style>.cls-1{fill:none;}.cls-2{clip-path:url(#clip-path);}.cls-3{fill:#dadada;}</style><clipPath id="clip-path" transform="translate(0 0)"><rect class="cls-1" width="18.96" height="16"/></clipPath></defs><title>auto</title><g class="cls-2"><path class="cls-3" d="M15.73,14.11a1.46,1.46,0,0,0,0-2,1.35,1.35,0,0,0-2,0,1.47,1.47,0,0,0,0,2,1.34,1.34,0,0,0,2,0m-9.83,0a1.46,1.46,0,0,0,0-2,1.35,1.35,0,0,0-2,0,1.47,1.47,0,0,0,0,2,1.34,1.34,0,0,0,2,0M2.11,7.27H6.32V4.36H4.59a0.33,0.33,0,0,0-.24.1L2.21,6.68a0.34,0.34,0,0,0-.1.25V7.27ZM19,0.73V12.36a0.92,0.92,0,0,1,0,.3,0.42,0.42,0,0,1-.15.21L18.59,13a0.63,0.63,0,0,1-.26.07l-0.25,0H17.56a2.85,2.85,0,0,1-.82,2.06,2.74,2.74,0,0,1-4,0,2.85,2.85,0,0,1-.82-2.06H7.72a2.85,2.85,0,0,1-.82,2.06,2.65,2.65,0,0,1-2,.85,2.65,2.65,0,0,1-2-.85,2.85,2.85,0,0,1-.82-2.06H0.88l-0.25,0A0.63,0.63,0,0,1,.37,13l-0.18-.13A0.42,0.42,0,0,1,0,12.66a0.92,0.92,0,0,1,0-.3,0.7,0.7,0,0,1,.21-0.51A0.66,0.66,0,0,1,.7,11.64V8c0-.06,0-0.19,0-0.4s0-.35,0-0.43,0-.21,0-0.39A2.05,2.05,0,0,1,.8,6.36,2.12,2.12,0,0,1,.95,6,1.46,1.46,0,0,1,1.2,5.67L3.37,3.42a1.7,1.7,0,0,1,.55-0.36,1.63,1.63,0,0,1,.64-0.15H6.32V0.73A0.71,0.71,0,0,1,6.53.22,0.66,0.66,0,0,1,7,0H18.26a0.66,0.66,0,0,1,.49.22A0.71,0.71,0,0,1,19,.73" transform="translate(0 0)"/></g></svg>