<svg id="Слой_1" data-name="Слой 1" xmlns="http://www.w3.org/2000/svg" xmlns:xlink="http://www.w3.org/1999/xlink" viewBox="0 0 20.36 16"><defs><style>.cls-1{fill:none;}.cls-2{clip-path:url(#clip-path);}.cls-3{fill:#42ab34;}</style><clipPath id="clip-path" transform="translate(0 0)"><rect class="cls-1" width="20.36" height="16"/></clipPath></defs><title>card</title><g class="cls-2"><path class="cls-3" d="M20.36,12.73v2.18A1.09,1.09,0,0,1,19.27,16H8.36a1.09,1.09,0,0,1-1.09-1.09V12.73a1.09,1.09,0,0,1,1.09-1.09H19.27a1.09,1.09,0,0,1,1.09,1.09m0-5.82V9.09a1.09,1.09,0,0,1-1.09,1.09H8.36A1.09,1.09,0,0,1,7.27,9.09V6.91A1.09,1.09,0,0,1,8.36,5.82H19.27a1.09,1.09,0,0,1,1.09,1.09m0-5.82V3.27a1.09,1.09,0,0,1-1.09,1.09H8.36A1.09,1.09,0,0,1,7.27,3.27V1.09A1.05,1.05,0,0,1,7.59.32,1,1,0,0,1,8.36,0H19.27A1.05,1.05,0,0,1,20,.32a1.05,1.05,0,0,1,.32.77M5.82,12.73v2.18A1.09,1.09,0,0,1,4.73,16H1.09a1.05,1.05,0,0,1-.77-0.32A1.05,1.05,0,0,1,0,14.91V12.73A1.05,1.05,0,0,1,.32,12a1,1,0,0,1,.77-0.32H4.73a1.09,1.09,0,0,1,1.09,1.09m0-5.82V9.09a1.09,1.09,0,0,1-1.09,1.09H1.09A1.05,1.05,0,0,1,.32,9.86,1.05,1.05,0,0,1,0,9.09V6.91A1.05,1.05,0,0,1,.32,6.14a1.05,1.05,0,0,1,.77-0.32H4.73A1.09,1.09,0,0,1,5.82,6.91m0-5.82V3.27A1.09,1.09,0,0,1,4.73,4.36H1.09A1.05,1.05,0,0,1,.32,4,1.05,1.05,0,0,1,0,3.27V1.09A1.05,1.05,0,0,1,.32.32,1.05,1.05,0,0,1,1.09,0H4.73A1.05,1.05,0,0,1,5.5.32a1.05,1.05,0,0,1,.32.77" transform="translate(0 0)"/></g></svg>