<svg id="Слой_1" data-name="Слой 1" xmlns="http://www.w3.org/2000/svg" xmlns:xlink="http://www.w3.org/1999/xlink" viewBox="0 0 18.91 16"><defs><style>.cls-1{fill:none;}.cls-2{clip-path:url(#clip-path);}.cls-3{fill:#fff;}</style><clipPath id="clip-path" transform="translate(0 0)"><rect class="cls-1" width="18.91" height="16"/></clipPath></defs><title>cart</title><g class="cls-2"><path class="cls-3" d="M17,13.52a1.43,1.43,0,1,1-1-.43,1.4,1.4,0,0,1,1,.43m-10.18,0a1.45,1.45,0,0,1-1,2.48,1.45,1.45,0,1,1,1-2.48M18.91,2.18V8a0.71,0.71,0,0,1-.19.48,0.72,0.72,0,0,1-.46.24L6.4,10.11a6.9,6.9,0,0,1,.15.8,2.21,2.21,0,0,1-.27.73H16.73a0.73,0.73,0,0,1,0,1.45H5.09a0.74,0.74,0,0,1-.73-0.73A1.09,1.09,0,0,1,4.45,12a4.31,4.31,0,0,1,.18-0.41l0.24-.45,0.18-.34L3,1.45H0.73A0.7,0.7,0,0,1,.22,1.24,0.7,0.7,0,0,1,0,.73,0.7,0.7,0,0,1,.22.22,0.7,0.7,0,0,1,.73,0H3.64A0.7,0.7,0,0,1,4,.07a0.66,0.66,0,0,1,.22.18,1.09,1.09,0,0,1,.15.28,1.68,1.68,0,0,1,.09.3L4.48,1.16l0.05,0.3H18.18a0.7,0.7,0,0,1,.51.22,0.7,0.7,0,0,1,.22.51" transform="translate(0 0)"/></g></svg>