<svg id="Слой_1" data-name="Слой 1" xmlns="http://www.w3.org/2000/svg" xmlns:xlink="http://www.w3.org/1999/xlink" viewBox="0 0 36 35.98"><defs><style>.cls-1{fill:none;}.cls-2{clip-path:url(#clip-path);}.cls-3{fill:#42ab34;}</style><clipPath id="clip-path" transform="translate(0 0)"><rect class="cls-1" width="36" height="35.98"/></clipPath></defs><title>clock</title><g class="cls-2"><path class="cls-3" d="M31.69,25.92a15.77,15.77,0,0,1-5.79,5.77A15.49,15.49,0,0,1,18,33.82a15.25,15.25,0,0,1-6.14-1.26,16.12,16.12,0,0,1-5-3.36,16,16,0,0,1-3.36-5.06A15.48,15.48,0,0,1,2.19,18a15.47,15.47,0,0,1,2.11-7.91,15.79,15.79,0,0,1,5.77-5.77A15.38,15.38,0,0,1,18,2.17,15.5,15.5,0,0,1,25.9,4.29a15.86,15.86,0,0,1,5.79,5.77A15.38,15.38,0,0,1,33.81,18a15.53,15.53,0,0,1-2.12,8M34.56,11A17.63,17.63,0,0,0,25,1.44a17.75,17.75,0,0,0-14,0A17.7,17.7,0,0,0,1.42,11a18,18,0,0,0,0,14A17.74,17.74,0,0,0,11,34.55a17.77,17.77,0,0,0,14,0A17.68,17.68,0,0,0,34.56,25a17.75,17.75,0,0,0,0-14" transform="translate(0 0)"/><path class="cls-3" d="M19.11,17.81V7.62A1.13,1.13,0,0,0,18,6.51a1.11,1.11,0,0,0-1.08,1.1V18a0.93,0.93,0,0,1,0,.16,1,1,0,0,0,.29.89l5.89,5.89a1.12,1.12,0,0,0,1.52,0,1.06,1.06,0,0,0,0-1.54Z" transform="translate(0 0)"/></g></svg>