<svg id="Слой_1" data-name="Слой 1" xmlns="http://www.w3.org/2000/svg" xmlns:xlink="http://www.w3.org/1999/xlink" viewBox="0 0 21.06 21.06"><defs><style>.cls-1{fill:none;}.cls-2{clip-path:url(#clip-path);}.cls-3{fill:#b3b2b2;}</style><clipPath id="clip-path" transform="translate(0 0)"><rect class="cls-1" width="21.06" height="21.06"/></clipPath></defs><title>delete</title><g class="cls-2"><path class="cls-3" d="M15.75,13.63A0.84,0.84,0,0,0,15.49,13L13,10.53,15.49,8a0.84,0.84,0,0,0,.26-0.62,0.86,0.86,0,0,0-.26-0.63L14.26,5.57a0.85,0.85,0,0,0-.63-0.26,0.84,0.84,0,0,0-.62.26L10.53,8,8,5.57a0.84,0.84,0,0,0-.62-0.26,0.86,0.86,0,0,0-.63.26L5.57,6.8a0.85,0.85,0,0,0-.26.63A0.83,0.83,0,0,0,5.57,8L8,10.53,5.57,13a0.83,0.83,0,0,0-.26.61,0.85,0.85,0,0,0,.26.63L6.8,15.49a0.86,0.86,0,0,0,.63.26A0.84,0.84,0,0,0,8,15.49L10.53,13,13,15.49a0.84,0.84,0,0,0,.62.26,0.85,0.85,0,0,0,.63-0.26l1.24-1.23a0.87,0.87,0,0,0,.26-0.63m3.89-8.38a10.3,10.3,0,0,1,1.41,5.28,10.3,10.3,0,0,1-1.41,5.29,10.47,10.47,0,0,1-3.83,3.83,10.3,10.3,0,0,1-5.29,1.41,10.3,10.3,0,0,1-5.29-1.41,10.46,10.46,0,0,1-3.83-3.83A10.3,10.3,0,0,1,0,10.53,10.3,10.3,0,0,1,1.41,5.24,10.49,10.49,0,0,1,5.24,1.41,10.33,10.33,0,0,1,10.53,0a10.32,10.32,0,0,1,5.29,1.41,10.5,10.5,0,0,1,3.83,3.83" transform="translate(0 0)"/></g></svg>