<svg id="Слой_1" data-name="Слой 1" xmlns="http://www.w3.org/2000/svg" xmlns:xlink="http://www.w3.org/1999/xlink" viewBox="0 0 40.21 22"><defs><style>.cls-1{fill:none;}.cls-2{clip-path:url(#clip-path);}.cls-3{fill:#878787;}</style><clipPath id="clip-path" transform="translate(0 0)"><rect class="cls-1" width="40.22" height="22"/></clipPath></defs><title>delivery</title><g class="cls-2"><path class="cls-3" d="M38.24,17.45H36.86a3.31,3.31,0,0,0-6.14,0H30V5.2H34.1c2.59,0,4.14,1.88,4.14,5v7.21ZM33.79,20a1.34,1.34,0,1,1,1.34-1.34A1.34,1.34,0,0,1,33.79,20m-18.3,0a1.34,1.34,0,1,1,1.34-1.34A1.34,1.34,0,0,1,15.49,20m23-15a5.83,5.83,0,0,0-4.35-1.83H30V1a1,1,0,0,0-1-1H9.26a1,1,0,0,0-1,1V4.43H4.43a1,1,0,0,0,0,2H9.26a1,1,0,0,0,1-1V2H28V17.45H18.57a3.31,3.31,0,0,0-6.15,0l-0.21,0H10.25V14a1,1,0,0,0-1-1H4.43a1,1,0,0,0,0,2H8.27v3.44a1,1,0,0,0,1,1h3a3.32,3.32,0,0,0,6.47,0H30.56a3.32,3.32,0,0,0,6.47,0h2.2a1,1,0,0,0,1-1v-8.2a7.48,7.48,0,0,0-1.77-5.18" transform="translate(0 0)"/><path class="cls-3" d="M17,11.56a1,1,0,0,0,.7,1.69,1,1,0,0,0,.7-0.29l2.55-2.55L21,10.34l0,0,0,0,0-.05,0,0,0-.05a0.08,0.08,0,0,0,0,0l0,0a0.25,0.25,0,0,1,0,0,0.11,0.11,0,0,0,0,0s0,0,0,0,0,0,0-.06,0,0,0,0a0.81,0.81,0,0,0,0-.2,0.07,0.07,0,0,0,0,0s0,0,0-.06,0,0,0,0,0,0,0-.05a0.16,0.16,0,0,0,0,0l0,0a0.09,0.09,0,0,1,0,0l0,0,0,0,0,0,0,0,0,0L20.91,9,18.48,6.55a1,1,0,0,0-1.4,1.4l0.73,0.73H1a1,1,0,0,0,0,2H17.8Z" transform="translate(0 0)"/></g></svg>