<svg id="Слой_1" data-name="Слой 1" xmlns="http://www.w3.org/2000/svg" xmlns:xlink="http://www.w3.org/1999/xlink" viewBox="0 0 20 17.44"><defs><style>.cls-1{fill:none;}.cls-2{clip-path:url(#clip-path);}.cls-3{fill:#ededed;}</style><clipPath id="clip-path" transform="translate(0 0)"><rect class="cls-1" width="20" height="17.44"/></clipPath></defs><title>faq</title><g class="cls-2"><path class="cls-3" d="M17.26,9.95l-2.84,2.84V7.09ZM3.43,8.25a11.76,11.76,0,0,0,4.78,2.9,11.82,11.82,0,0,0,4.27.51v5.79L20,9.95,12.46,2.41l0,7.31A9.83,9.83,0,0,1,4.8,6.88,9.74,9.74,0,0,1,1.93,0H0A11.65,11.65,0,0,0,3.43,8.25" transform="translate(0 0)"/></g><g class="cls-2"><path class="cls-3" d="M17.26,9.95l-2.84,2.84V7.09ZM3.43,8.25a11.76,11.76,0,0,0,4.78,2.9,11.82,11.82,0,0,0,4.27.51v5.79L20,9.95,12.46,2.41l0,7.31A9.83,9.83,0,0,1,4.8,6.88,9.74,9.74,0,0,1,1.93,0H0A11.65,11.65,0,0,0,3.43,8.25" transform="translate(0 0)"/></g></svg>