<svg id="Слой_1" data-name="Слой 1" xmlns="http://www.w3.org/2000/svg" xmlns:xlink="http://www.w3.org/1999/xlink" viewBox="0 0 22 22"><defs><style>.cls-1{fill:none;}.cls-2{clip-path:url(#clip-path);}.cls-3{fill:#878787;}</style><clipPath id="clip-path" transform="translate(0 0)"><rect class="cls-1" width="22" height="22"/></clipPath></defs><title>garant</title><g class="cls-2"><path class="cls-3" d="M20.65,5.65H1.35V1.35h19.3v4.3Zm0,9.8H1.35V6.75h19.3v8.7Zm0,5.2H1.35V16.18h19.3v4.47ZM20.75,0H1.26A1.26,1.26,0,0,0,0,1.26V20.74A1.26,1.26,0,0,0,1.26,22H20.75A1.26,1.26,0,0,0,22,20.74V1.26A1.26,1.26,0,0,0,20.75,0" transform="translate(0 0)"/></g><rect class="cls-3" x="2.7" y="8.56" width="11.16" height="1.19"/><rect class="cls-3" x="16.42" y="8.51" width="2.48" height="1.19"/><rect class="cls-3" x="16.42" y="11.53" width="2.48" height="1.2"/><rect class="cls-3" x="2.7" y="11.57" width="11.16" height="1.2"/><rect class="cls-3" x="14.96" y="17.2" width="4.67" height="1.58"/></svg>