<svg id="Слой_1" data-name="Слой 1" xmlns="http://www.w3.org/2000/svg" xmlns:xlink="http://www.w3.org/1999/xlink" viewBox="0 0 18.34 16"><defs><style>.cls-1{fill:none;}.cls-2{clip-path:url(#clip-path);}.cls-3{fill:#dadada;}</style><clipPath id="clip-path" transform="translate(0 0)"><rect class="cls-1" width="18.34" height="16"/></clipPath></defs><title>home</title><g class="cls-2"><path class="cls-3" d="M15.71,7A1.73,1.73,0,0,1,14,5.55h3.41A1.74,1.74,0,0,1,15.71,7m0.15,8.13H8.45V10.25A1.54,1.54,0,0,0,6.91,8.71H5.61a1.54,1.54,0,0,0-1.54,1.54v4.85H2.47V7.87H2.63A2.63,2.63,0,0,0,4.81,6.71a2.63,2.63,0,0,0,4.36,0,2.62,2.62,0,0,0,4.36,0,2.63,2.63,0,0,0,2.18,1.16h0.15V15.1Zm-8.31,0H5V10.25a0.64,0.64,0,0,1,.64-0.64H6.92a0.64,0.64,0,0,1,.64.64V15.1h0ZM0.93,5.55H4.34a1.73,1.73,0,0,1-3.41,0m7.76,0a1.73,1.73,0,0,1-3.41,0H8.69Zm4.36,0a1.73,1.73,0,0,1-3.4,0h3.4ZM3.44,0.9H14.9L17,4.65H1.31Zm14.9,4.34A0.42,0.42,0,0,0,18.28,5L15.55,0.23A0.45,0.45,0,0,0,15.16,0h-12a0.45,0.45,0,0,0-.39.23L0.06,5A0.45,0.45,0,0,0,0,5.24a2.63,2.63,0,0,0,1.57,2.4v7.9A0.45,0.45,0,0,0,2,16H16.31a0.45,0.45,0,0,0,.45-0.45V7.7a0.25,0.25,0,0,0,0,0,2.64,2.64,0,0,0,1.58-2.41" transform="translate(0 0)"/></g></svg>