<svg id="Слой_1" data-name="Слой 1" xmlns="http://www.w3.org/2000/svg" xmlns:xlink="http://www.w3.org/1999/xlink" viewBox="0 0 27.27 27.27"><defs><style>.cls-1{fill:none;}.cls-2{clip-path:url(#clip-path);}.cls-3{fill:#000100;}</style><clipPath id="clip-path" transform="translate(4.55 4.55)"><path class="cls-1" d="M14.06,9.09a5,5,0,0,0-.37-1.87h2.72v7.44a1.75,1.75,0,0,1-1.74,1.74H3.51a1.75,1.75,0,0,1-1.74-1.74V7.23H4.49a5,5,0,1,0,9.58,1.87m-8.17,0a3.2,3.2,0,1,1,3.2,3.2,3.18,3.18,0,0,1-3.2-3.2m7.1-7h3.08V5.18H13V2.1ZM3.51,0A3.52,3.52,0,0,0,0,3.51V14.67a3.52,3.52,0,0,0,3.51,3.51H14.67a3.52,3.52,0,0,0,3.51-3.51V3.51A3.52,3.52,0,0,0,14.67,0H3.51Z"/></clipPath></defs><title>in</title><g class="cls-2"><rect class="cls-3" width="27.27" height="27.27"/></g></svg>