<svg id="Слой_1" data-name="Слой 1" xmlns="http://www.w3.org/2000/svg" xmlns:xlink="http://www.w3.org/1999/xlink" viewBox="0 0 20.57 17.14"><defs><style>.cls-1{fill:none;}.cls-2{clip-path:url(#clip-path);}.cls-3{fill:#009640;}</style><clipPath id="clip-path" transform="translate(0 0)"><rect class="cls-1" width="20.57" height="17.14"/></clipPath></defs><title>list</title><g class="cls-2"><path class="cls-3" d="M20.57,14.57v1.71a0.87,0.87,0,0,1-.86.86H0.86a0.82,0.82,0,0,1-.6-0.25A0.82,0.82,0,0,1,0,16.29V14.57A0.82,0.82,0,0,1,.26,14a0.82,0.82,0,0,1,.6-0.26H19.71a0.87,0.87,0,0,1,.86.86m0-6.86V9.43a0.87,0.87,0,0,1-.86.86H0.86A0.82,0.82,0,0,1,.26,10,0.82,0.82,0,0,1,0,9.43V7.71a0.82,0.82,0,0,1,.25-0.6,0.82,0.82,0,0,1,.6-0.26H19.71a0.87,0.87,0,0,1,.86.86m0-6.86V2.57a0.83,0.83,0,0,1-.25.6,0.82,0.82,0,0,1-.6.26H0.86a0.82,0.82,0,0,1-.6-0.26A0.82,0.82,0,0,1,0,2.57V0.86A0.82,0.82,0,0,1,.26.25,0.83,0.83,0,0,1,.86,0H19.71a0.83,0.83,0,0,1,.6.25,0.83,0.83,0,0,1,.25.6" transform="translate(0 0)"/></g></svg>