<svg id="Слой_1" data-name="Слой 1" xmlns="http://www.w3.org/2000/svg" xmlns:xlink="http://www.w3.org/1999/xlink" viewBox="0 0 8.31 11.86"><defs><style>.cls-1{fill:none;}.cls-2{clip-path:url(#clip-path);}.cls-3{fill:#42ab34;}</style><clipPath id="clip-path" transform="translate(0 0)"><rect class="cls-1" width="8.31" height="11.86"/></clipPath></defs><title>location</title><g class="cls-2"><path class="cls-3" d="M4.19,5.2A1.08,1.08,0,1,1,5.28,4.12,1.08,1.08,0,0,1,4.19,5.2m0-2.6A1.52,1.52,0,1,0,5.71,4.12,1.52,1.52,0,0,0,4.19,2.6" transform="translate(0 0)"/><path class="cls-3" d="M7.13,6.81l-3,4.29-3-4.3a4.28,4.28,0,0,1,.35-5.28,3.72,3.72,0,0,1,5.26,0,4.28,4.28,0,0,1,.34,5.29m0-5.59a4.15,4.15,0,0,0-5.87,0A4.73,4.73,0,0,0,.83,7.05l3.33,4.81,3.32-4.8a4.73,4.73,0,0,0-.38-5.84" transform="translate(0 0)"/></g></svg>