<svg id="Слой_1" data-name="Слой 1" xmlns="http://www.w3.org/2000/svg" xmlns:xlink="http://www.w3.org/1999/xlink" viewBox="0 0 72 72"><defs><style>.cls-1{fill:none;}.cls-2{fill:#42ab34;}.cls-3{clip-path:url(#clip-path);}.cls-4{fill:#fff;}.cls-5{fill:#48ae4d;}</style><clipPath id="clip-path"><rect class="cls-1" width="72" height="72"/></clipPath></defs><title>logo22</title><rect class="cls-2" width="72" height="72"/><g class="cls-3"><path class="cls-4" d="M36,44.28A12.25,12.25,0,1,1,48.25,32,12.25,12.25,0,0,1,36,44.28M35.19,9.14a22.9,22.9,0,0,0,.88,45.79,22,22,0,0,0,10.45-2.67,0.89,0.89,0,0,1,1.31,1v4.53c0,2.41,2.51,5.12,4.92,5.12h1.63c2.49,0,4.24-2.4,4.24-4.89,0,0,.27-25.68.27-25.76A23.06,23.06,0,0,0,35.19,9.14"/><path class="cls-5" d="M53.35,60.57a2.82,2.82,0,1,1,2.82-2.82,2.82,2.82,0,0,1-2.82,2.82"/></g></svg>