<svg id="Слой_1" data-name="Слой 1" xmlns="http://www.w3.org/2000/svg" xmlns:xlink="http://www.w3.org/1999/xlink" viewBox="0 0 16 16"><defs><style>.cls-1{fill:none;}.cls-2{clip-path:url(#clip-path);}.cls-3{fill:#ededed;}</style><clipPath id="clip-path" transform="translate(0 0)"><rect class="cls-1" width="16" height="16"/></clipPath></defs><title>loop</title><g class="cls-2"><path class="cls-3" d="M9.81,9.81a4.15,4.15,0,0,1-3,1.26,4.15,4.15,0,0,1-3-1.26,4.15,4.15,0,0,1-1.26-3,4.15,4.15,0,0,1,1.26-3,4.15,4.15,0,0,1,3-1.26,4.15,4.15,0,0,1,3,1.26,4.15,4.15,0,0,1,1.26,3,4.15,4.15,0,0,1-1.26,3m5.83,4.09-3.3-3.3a6.59,6.59,0,0,0,1.19-3.84A6.67,6.67,0,0,0,13,4.14,6.64,6.64,0,0,0,9.4.53a6.76,6.76,0,0,0-5.26,0A6.64,6.64,0,0,0,.53,4.14a6.76,6.76,0,0,0,0,5.26A6.63,6.63,0,0,0,4.14,13a6.65,6.65,0,0,0,2.63.53,6.59,6.59,0,0,0,3.84-1.19l3.3,3.29a1.14,1.14,0,0,0,.87.37,1.23,1.23,0,0,0,.88-2.1" transform="translate(0 0)"/><path class="cls-3" d="M9.54,6.15H7.38V4a0.31,0.31,0,0,0-.31-0.31H6.46A0.31,0.31,0,0,0,6.15,4V6.15H4a0.3,0.3,0,0,0-.22.09,0.3,0.3,0,0,0-.09.22V7.08A0.31,0.31,0,0,0,4,7.39H6.15V9.54a0.31,0.31,0,0,0,.31.31H7.08a0.3,0.3,0,0,0,.22-0.09,0.3,0.3,0,0,0,.09-0.22V7.39H9.54a0.31,0.31,0,0,0,.31-0.31V6.46a0.31,0.31,0,0,0-.31-0.31" transform="translate(0 0)"/></g></svg>