<?xml version="1.0" encoding="utf-8"?>
<!-- Generator: Adobe Illustrator 19.2.1, SVG Export Plug-In . SVG Version: 6.00 Build 0)  -->
<svg version="1.1" id="Слой_1" xmlns="http://www.w3.org/2000/svg" xmlns:xlink="http://www.w3.org/1999/xlink" x="0px" y="0px"
	 width="21.8px" height="30.9px" viewBox="0 0 21.8 30.9" enable-background="new 0 0 21.8 30.9" xml:space="preserve">
<g>
	<defs>
		<path id="SVGID_1_" d="M4.8,16.8c-0.5,0.8-0.3,1.8,0.5,2.3c1,0.6,2.1,1.1,3.3,1.4l-3.2,3.1c-0.6,0.6-0.6,1.7,0,2.3
			c0.3,0.3,0.8,0.5,1.2,0.5s0.9-0.2,1.2-0.5l3.1-3.1l3.1,3.1c0.6,0.6,1.7,0.6,2.3,0c0.6-0.6,0.6-1.7,0-2.3l-3.2-3.1
			c1.2-0.3,2.3-0.7,3.3-1.4c0.8-0.5,1-1.5,0.5-2.3c-0.3-0.5-0.9-0.8-1.4-0.8c-0.3,0-0.6,0.1-0.9,0.3c-2.3,1.4-5.3,1.4-7.6,0
			C6.8,16.1,6.5,16,6.2,16C5.7,16,5.1,16.3,4.8,16.8 M8.5,10.2c0-1.3,1.1-2.3,2.3-2.3c1.3,0,2.3,1,2.3,2.3c0,1.3-1.1,2.3-2.3,2.3
			C9.6,12.5,8.5,11.5,8.5,10.2 M5.2,10.2c0,3.1,2.5,5.6,5.7,5.6c3.1,0,5.7-2.5,5.7-5.6c0-3.1-2.5-5.6-5.7-5.6
			C7.8,4.5,5.2,7.1,5.2,10.2"/>
	</defs>
	<clipPath id="SVGID_2_">
		<use xlink:href="#SVGID_1_"  overflow="visible"/>
	</clipPath>
	<rect clip-path="url(#SVGID_2_)" fill="#010202" width="21.8" height="30.9"/>
</g>
</svg>
