<?xml version="1.0" encoding="utf-8"?>
<!-- Generator: Adobe Illustrator 19.2.1, SVG Export Plug-In . SVG Version: 6.00 Build 0)  -->
<svg version="1.1" id="Слой_1" xmlns="http://www.w3.org/2000/svg" xmlns:xlink="http://www.w3.org/1999/xlink" x="0px" y="0px"
	 width="40px" height="40px" viewBox="0 0 40 40" enable-background="new 0 0 40 40" xml:space="preserve">
<g>
	<defs>
		<path id="SVGID_1_" d="M0,20c0,11,9,20,20,20s20-9,20-20S31,0,20,0S0,9,0,20"/>
	</defs>
	<clipPath id="SVGID_2_">
		<use xlink:href="#SVGID_1_"  overflow="visible"/>
	</clipPath>
	
		<circle clip-path="url(#SVGID_2_)" fill="none" stroke="#010202" stroke-width="3.636" stroke-miterlimit="10" cx="20" cy="20" r="20"/>
</g>
<g>
	<defs>
		<path id="SVGID_3_" d="M13.9,21.3c-0.5,0.8-0.3,1.8,0.5,2.3c1,0.6,2.1,1.1,3.3,1.4l-3.2,3.1c-0.6,0.6-0.6,1.7,0,2.3
			c0.3,0.3,0.8,0.5,1.2,0.5s0.9-0.2,1.2-0.5l3.1-3.1l3.1,3.1c0.6,0.6,1.7,0.6,2.3,0c0.6-0.6,0.6-1.7,0-2.3l-3.2-3.1
			c1.2-0.3,2.3-0.7,3.3-1.4c0.8-0.5,1-1.5,0.5-2.3c-0.3-0.5-0.9-0.8-1.4-0.8c-0.3,0-0.6,0.1-0.9,0.3c-2.3,1.4-5.3,1.4-7.6,0
			c-0.3-0.2-0.6-0.3-0.9-0.3C14.7,20.5,14.2,20.8,13.9,21.3 M17.6,14.7c0-1.3,1.1-2.3,2.3-2.3c1.3,0,2.3,1,2.3,2.3
			c0,1.3-1.1,2.3-2.3,2.3C18.7,17.1,17.6,16,17.6,14.7 M14.3,14.7c0,3.1,2.5,5.6,5.7,5.6c3.1,0,5.7-2.5,5.7-5.6
			c0-3.1-2.5-5.6-5.7-5.6C16.9,9.1,14.3,11.6,14.3,14.7"/>
	</defs>
	<clipPath id="SVGID_4_">
		<use xlink:href="#SVGID_3_"  overflow="visible"/>
	</clipPath>
	<rect x="9.1" y="4.5" clip-path="url(#SVGID_4_)" fill="#010202" width="21.8" height="30.9"/>
</g>
</svg>
