<svg id="Слой_1" data-name="Слой 1" xmlns="http://www.w3.org/2000/svg" xmlns:xlink="http://www.w3.org/1999/xlink" viewBox="0 0 16 16"><defs><style>.cls-1{fill:none;}.cls-2{clip-path:url(#clip-path);}.cls-3{fill:#cdcccc;}</style><clipPath id="clip-path" transform="translate(0 0)"><rect class="cls-1" width="16" height="16"/></clipPath></defs><title>percent</title><g class="cls-2"><path class="cls-3" d="M12.94,12.94a1.31,1.31,0,1,0-.94.4,1.29,1.29,0,0,0,.94-0.4m1.89-3.77a4,4,0,0,1,0,5.66A3.85,3.85,0,0,1,12,16a4,4,0,0,1-4-4,4,4,0,0,1,4-4,3.85,3.85,0,0,1,2.83,1.17M4.94,4.94a1.31,1.31,0,0,0,0-1.87,1.31,1.31,0,0,0-1.87,0,1.31,1.31,0,0,0,0,1.88,1.31,1.31,0,0,0,1.87,0M15,0.67a0.66,0.66,0,0,1-.14.4l-11,14.67a0.62,0.62,0,0,1-.53.27H1.67a0.64,0.64,0,0,1-.47-0.2A0.64,0.64,0,0,1,1,15.33a0.67,0.67,0,0,1,.14-0.4l11-14.67A0.63,0.63,0,0,1,12.67,0h1.67a0.64,0.64,0,0,1,.47.2,0.64,0.64,0,0,1,.2.47m-8.17.5A3.85,3.85,0,0,1,8,4,3.85,3.85,0,0,1,6.83,6.83,3.85,3.85,0,0,1,4,8,3.85,3.85,0,0,1,1.17,6.83,3.85,3.85,0,0,1,0,4,3.85,3.85,0,0,1,1.17,1.17,3.85,3.85,0,0,1,4,0,3.85,3.85,0,0,1,6.83,1.17" transform="translate(0 0)"/></g></svg>