<svg id="Слой_1" data-name="Слой 1" xmlns="http://www.w3.org/2000/svg" xmlns:xlink="http://www.w3.org/1999/xlink" viewBox="0 0 36 36.12"><defs><style>.cls-1{fill:none;}.cls-2{clip-path:url(#clip-path);}.cls-3{fill:#42ab34;}</style><clipPath id="clip-path" transform="translate(0 0)"><rect class="cls-1" width="36" height="36.12"/></clipPath></defs><title>phone</title><g class="cls-2"><path class="cls-3" d="M33.21,30.05h0c-0.32.34-.64,0.65-1,1a21.17,21.17,0,0,0-1.56,1.62,3.91,3.91,0,0,1-3,1.29H27.24A17.57,17.57,0,0,1,20.92,32,36,36,0,0,1,9,22.69,32.84,32.84,0,0,1,3.13,13a11.54,11.54,0,0,1-.91-5.06,3.71,3.71,0,0,1,1.12-2.4L6.1,2.76a1.84,1.84,0,0,1,1.23-.58,1.73,1.73,0,0,1,1.18.57l0,0C9,3.24,9.5,3.71,10,4.22L10.77,5,13,7.22a1.54,1.54,0,0,1,0,2.51l-0.7.7c-0.68.7-1.33,1.34-2,2l0,0a1.65,1.65,0,0,0-.42,1.84l0,0.07a17.75,17.75,0,0,0,2.62,4.26h0a29.72,29.72,0,0,0,7.19,6.54,11,11,0,0,0,1,.54c0.29,0.15.57,0.28,0.8,0.43l0.1,0.06a1.76,1.76,0,0,0,.8.2,1.74,1.74,0,0,0,1.23-.56l2.77-2.77a1.84,1.84,0,0,1,1.22-.61,1.65,1.65,0,0,1,1.17.59l4.48,4.47a1.6,1.6,0,0,1,0,2.53m-2.9-8.52a3.78,3.78,0,0,0-2.74-1.25,3.91,3.91,0,0,0-2.77,1.25l-2.56,2.55-0.62-.32c-0.29-.14-0.57-0.28-0.8-0.43a27.8,27.8,0,0,1-6.67-6.07A16.43,16.43,0,0,1,12,13.8c0.66-.61,1.28-1.24,1.88-1.84l0.68-.69a3.71,3.71,0,0,0,0-5.6L12.31,3.46C12.05,3.21,11.8,3,11.55,2.69c-0.49-.5-1-1-1.52-1.51A3.83,3.83,0,0,0,7.32,0,4,4,0,0,0,4.56,1.19l0,0L1.79,4A5.92,5.92,0,0,0,0,7.74a14.17,14.17,0,0,0,1,6,34.84,34.84,0,0,0,6.2,10.32A38.12,38.12,0,0,0,20,34a19.8,19.8,0,0,0,7.13,2.1l0.51,0a6.11,6.11,0,0,0,4.67-2l0,0a18.29,18.29,0,0,1,1.42-1.47c0.35-.33.7-0.68,1.05-1A4,4,0,0,0,36,28.77,3.89,3.89,0,0,0,34.75,26Z" transform="translate(0 0)"/></g></svg>