<svg id="Слой_1" data-name="Слой 1" xmlns="http://www.w3.org/2000/svg" xmlns:xlink="http://www.w3.org/1999/xlink" viewBox="0 0 24.67 22"><defs><style>.cls-1{fill:none;}.cls-2{clip-path:url(#clip-path);}.cls-3{fill:#676767;}</style><clipPath id="clip-path" transform="translate(0 0)"><rect class="cls-1" width="24.67" height="22"/></clipPath></defs><title>size</title><g class="cls-2"><path class="cls-3" d="M23.69,15.85l-10.86,4.9V11.32L23,6.93l0.73-.32v9.23ZM1,6.61L1.71,6.93l10.13,4.39v9.42L1,15.85V6.61ZM11.84,5.29H2.94l8.91-4v4Zm1,5v-4h4.42a0.49,0.49,0,0,0,0-1H12.83v-4L23,5.85,13.41,10Zm-10.15-4h9.17v4L11.26,10Zm22-.41a0.49,0.49,0,0,0-.29-0.45L12.54,0a0.49,0.49,0,0,0-.41,0h0L0.29,5.42A0.49,0.49,0,0,0,0,5.86v10.3a0.49,0.49,0,0,0,.29.45L12.13,22a0.49,0.49,0,0,0,.4,0h0l11.84-5.34a0.49,0.49,0,0,0,.29-0.45V5.86" transform="translate(0 0)"/><path class="cls-3" d="M19.32,5.29H19a0.49,0.49,0,1,0,0,1h0.34a0.49,0.49,0,0,0,0-1" transform="translate(0 0)"/><path class="cls-3" d="M19.95,14.07l-2.77,1.25V13.08l2.77-1.2v2.19Zm0.76-3.35a0.49,0.49,0,0,0-.47,0l-3.75,1.63a0.49,0.49,0,0,0-.3.45v3.33a0.49,0.49,0,0,0,.69.45l3.75-1.69a0.49,0.49,0,0,0,.29-0.45V11.13a0.49,0.49,0,0,0-.22-0.41" transform="translate(0 0)"/></g></svg>