<svg id="Слой_1" data-name="Слой 1" xmlns="http://www.w3.org/2000/svg" viewBox="0 0 16.79 16"><defs><style>.cls-1{fill:#42ab34;}</style></defs><title>star</title><path class="cls-1" d="M0.95,6.39L4.56,9.91a0.3,0.3,0,0,1,.08.27l-0.85,5L8.26,12.8a0.31,0.31,0,0,1,.28,0L13,15.15l-0.85-5a0.31,0.31,0,0,1,.09-0.27l3.61-3.52-5-.73a0.3,0.3,0,0,1-.23-0.16L8.4,1,6.16,5.5a0.3,0.3,0,0,1-.23.17ZM3.39,16a0.3,0.3,0,0,1-.3-0.35L4,10.23,0.09,6.4A0.3,0.3,0,0,1,.26,5.89L5.69,5.1,8.13,0.17a0.3,0.3,0,0,1,.54,0L11.1,5.1l5.44,0.79a0.3,0.3,0,0,1,.17.51l-3.93,3.84,0.93,5.41a0.3,0.3,0,0,1-.12.29,0.3,0.3,0,0,1-.32,0L8.4,13.41,3.53,16a0.31,0.31,0,0,1-.14,0"/></svg>