<svg id="Слой_1" data-name="Слой 1" xmlns="http://www.w3.org/2000/svg" xmlns:xlink="http://www.w3.org/1999/xlink" viewBox="0 0 21.12 20"><defs><style>.cls-1{fill:none;}.cls-2{clip-path:url(#clip-path);}.cls-3{fill:#dadada;}</style><clipPath id="clip-path" transform="translate(0 0)"><rect class="cls-1" width="21.12" height="20"/></clipPath></defs><title>stock</title><g class="cls-2"><path class="cls-3" d="M19.83,18.7H18.54V18a0.65,0.65,0,0,0-.65-0.65h-6a0.65,0.65,0,0,0-.65.65V18.7H9.91V18a0.65,0.65,0,0,0-.65-0.65h-6a0.65,0.65,0,0,0-.65.65V18.7H1.29V16.09H19.83V18.7ZM2.59,8.7H9.91v6.09H2.59V8.7ZM6.9,1.3h7.33V7.39H6.9V1.3ZM18.54,14.78H11.21V8.7h7.33v6.09Zm1.94,0H19.83V8a0.65,0.65,0,0,0-.65-0.65H15.52V0.65A0.65,0.65,0,0,0,14.87,0H6.25A0.65,0.65,0,0,0,5.6.65V7.39H1.94A0.65,0.65,0,0,0,1.29,8v6.74H0.65a0.65,0.65,0,0,0-.65.65v3.91A0.65,0.65,0,0,0,.65,20H3.23a0.65,0.65,0,0,0,.65-0.65V18.7H8.62v0.65a0.65,0.65,0,0,0,.65.65h2.59a0.65,0.65,0,0,0,.65-0.65V18.7h4.74v0.65a0.65,0.65,0,0,0,.65.65h2.59a0.65,0.65,0,0,0,.65-0.65V15.43a0.65,0.65,0,0,0-.65-0.65" transform="translate(0 0)"/></g></svg>