<svg id="Слой_1" data-name="Слой 1" xmlns="http://www.w3.org/2000/svg" xmlns:xlink="http://www.w3.org/1999/xlink" viewBox="0 0 20.68 19.08"><defs><style>.cls-1{fill:none;}.cls-2{clip-path:url(#clip-path);}.cls-3{fill:#000100;}</style><clipPath id="clip-path"><path class="cls-1" d="M10,5.93a4.41,4.41,0,0,0,.1.94A10.94,10.94,0,0,1,2,2.55a4.3,4.3,0,0,0-.53,2.08A4.19,4.19,0,0,0,3.21,8.07a3.78,3.78,0,0,1-1.78-.52V7.6a4.08,4.08,0,0,0,3.14,4.05,3.75,3.75,0,0,1-1.77.07,4,4,0,0,0,3.66,2.87,7.61,7.61,0,0,1-4.86,1.77A7.39,7.39,0,0,1,.67,16.3a10.68,10.68,0,0,0,6,1.86c7.2,0,11.14-6.3,11.14-11.75,0-.18,0-0.36,0-0.53a8.17,8.17,0,0,0,2-2.14,7.47,7.47,0,0,1-2.25.65A4.09,4.09,0,0,0,19.23,2.1a7.57,7.57,0,0,1-2.49,1A3.82,3.82,0,0,0,13.89,1.8,4,4,0,0,0,10,5.93"/></clipPath></defs><title>tw</title><g class="cls-2"><rect class="cls-3" width="20.68" height="19.08"/></g></svg>