<svg id="Слой_1" data-name="Слой 1" xmlns="http://www.w3.org/2000/svg" xmlns:xlink="http://www.w3.org/1999/xlink" viewBox="0 0 14.67 16"><defs><style>.cls-1{fill:none;}.cls-2{clip-path:url(#clip-path);}.cls-3{fill:#009640;}</style><clipPath id="clip-path" transform="translate(0 0)"><rect class="cls-1" width="14.67" height="16"/></clipPath></defs><title>user</title><g class="cls-2"><path class="cls-3" d="M10.16,1.17A3.85,3.85,0,0,1,11.33,4a3.85,3.85,0,0,1-1.17,2.83A3.85,3.85,0,0,1,7.33,8,3.85,3.85,0,0,1,4.51,6.83,3.85,3.85,0,0,1,3.33,4,3.85,3.85,0,0,1,4.51,1.17,3.86,3.86,0,0,1,7.33,0a3.85,3.85,0,0,1,2.83,1.17M14.67,13.3a2.6,2.6,0,0,1-.76,2,2.81,2.81,0,0,1-2,.72H2.78a2.81,2.81,0,0,1-2-.72,2.6,2.6,0,0,1-.76-2q0-.55,0-1.08a10.74,10.74,0,0,1,.15-1.14A8.88,8.88,0,0,1,.46,10a5.45,5.45,0,0,1,.45-1A3.68,3.68,0,0,1,1.55,8.1a2.73,2.73,0,0,1,.89-0.56A3.12,3.12,0,0,1,3.6,7.33,1.31,1.31,0,0,1,4,7.56l0.78,0.5a4.9,4.9,0,0,0,1.13.5,4.45,4.45,0,0,0,2.78,0,4.92,4.92,0,0,0,1.13-.5l0.78-.5a1.29,1.29,0,0,1,.44-0.22,3.13,3.13,0,0,1,1.16.21,2.73,2.73,0,0,1,.89.56,3.69,3.69,0,0,1,.65.84,5.38,5.38,0,0,1,.45,1,8.87,8.87,0,0,1,.28,1.13,10.74,10.74,0,0,1,.15,1.14q0,0.53,0,1.08" transform="translate(0 0)"/></g></svg>