<svg id="Слой_1" data-name="Слой 1" xmlns="http://www.w3.org/2000/svg" xmlns:xlink="http://www.w3.org/1999/xlink" viewBox="0 0 43.64 43.64"><defs><style>.cls-1,.cls-3{fill:none;}.cls-2{clip-path:url(#clip-path);}.cls-3{stroke:#000100;stroke-miterlimit:10;stroke-width:3.64px;}.cls-4{clip-path:url(#clip-path-2);}.cls-5{fill:#000100;}</style><clipPath id="clip-path" transform="translate(1.82 1.82)"><path class="cls-1" d="M0,20A20,20,0,1,0,20,0,20,20,0,0,0,0,20"/></clipPath><clipPath id="clip-path-2" transform="translate(1.82 1.82)"><path class="cls-1" d="M16.27,14.82c-0.39.19-.69,0.6-0.51,0.63a1.55,1.55,0,0,1,1,.5,3.2,3.2,0,0,1,.34,1.52s0.2,2.89-.47,3.25c-0.46.25-1.09-.26-2.45-2.56A21.1,21.1,0,0,1,13,15.68a1,1,0,0,0-.28-0.37,1.4,1.4,0,0,0-.53-0.21l-3.25,0a1.12,1.12,0,0,0-.67.22,0.68,0.68,0,0,0,0,.57s2.54,5.84,5.42,8.78a7.88,7.88,0,0,0,5.64,2.52h1.36a1.17,1.17,0,0,0,.62-0.27,1,1,0,0,0,.19-0.59s0-1.79.82-2.05,1.9,1.73,3,2.49a2.18,2.18,0,0,0,1.51.45l3,0s1.59-.1.83-1.32a10,10,0,0,0-2.26-2.56c-1.9-1.73-1.65-1.45.64-4.45,1.4-1.83,2-2.94,1.78-3.42s-1.19-.33-1.19-0.33l-3.42,0a0.78,0.78,0,0,0-.44.08,1,1,0,0,0-.3.36,19.16,19.16,0,0,1-1.26,2.61c-1.52,2.53-2.13,2.67-2.38,2.51-0.58-.37-0.43-1.48-0.43-2.26,0-2.46.38-3.48-.74-3.75a6,6,0,0,0-1.6-.16H18.63a6.16,6.16,0,0,0-2.36.29"/></clipPath></defs><title>vk</title><g class="cls-2"><circle class="cls-3" cx="21.82" cy="21.82" r="20"/></g><g class="cls-4"><rect class="cls-5" x="5.45" y="11.81" width="31.82" height="21.82"/></g></svg>