<svg id="Слой_1" data-name="Слой 1" xmlns="http://www.w3.org/2000/svg" xmlns:xlink="http://www.w3.org/1999/xlink" viewBox="0 0 18.2 16"><defs><style>.cls-1{fill:none;}.cls-2{clip-path:url(#clip-path);}.cls-3{fill:#ededed;}</style><clipPath id="clip-path" transform="translate(0 0)"><rect class="cls-1" width="18.2" height="16"/></clipPath></defs><title>wish</title><g class="cls-2"><path class="cls-3" d="M16,7.88L9.09,14.75,2.22,7.87A4,4,0,1,1,7.86,2.22L8.74,3.09a0.52,0.52,0,0,0,.74,0l0.86-.86A4,4,0,0,1,16,7.88m0.74-6.39a5,5,0,0,0-7.13,0L9.11,2,8.6,1.48a5,5,0,0,0-7.13,0,5,5,0,0,0,0,7.13l7.25,7.25a0.52,0.52,0,0,0,.73,0l7.26-7.23a5,5,0,0,0,0-7.13" transform="translate(0 0)"/></g></svg>